<?xml version="1.0" encoding="UTF-8"?>
<svg xmlns="http://www.w3.org/2000/svg" xmlns:xlink="http://www.w3.org/1999/xlink" width="3232px" height="3232px" viewBox="0 0 3232 3232" version="1.1">
<defs>
<linearGradient id="linear0" gradientUnits="userSpaceOnUse" x1="0" y1="-104.3" x2="854.58" y2="750.28" gradientTransform="matrix(3.781975,0,0,-3.781975,0,2837.540031)">
<stop offset="0" style="stop-color:rgb(4.705882%,0.784314%,13.72549%);stop-opacity:1;"/>
<stop offset="1" style="stop-color:rgb(6.666667%,4.705882%,38.039216%);stop-opacity:1;"/>
</linearGradient>
<linearGradient id="linear1" gradientUnits="userSpaceOnUse" x1="161.31" y1="321.35" x2="661.85" y2="321.35" gradientTransform="matrix(3.781975,0,0,-3.781975,0,2837.540031)">
<stop offset="0" style="stop-color:rgb(94.901961%,36.078431%,31.764706%);stop-opacity:1;"/>
<stop offset="1" style="stop-color:rgb(100%,67.843137%,25.098039%);stop-opacity:1;"/>
</linearGradient>
<linearGradient id="linear2" gradientUnits="userSpaceOnUse" x1="162.85" y1="341.12" x2="693.26" y2="341.12" gradientTransform="matrix(3.781975,0,0,-3.781975,0,2837.540031)">
<stop offset="0" style="stop-color:rgb(95.686275%,48.627451%,42.352941%);stop-opacity:1;"/>
<stop offset="1" style="stop-color:rgb(100%,84.705882%,21.176471%);stop-opacity:1;"/>
</linearGradient>
<linearGradient id="linear3" gradientUnits="userSpaceOnUse" x1="162.85" y1="341.12" x2="693.26" y2="341.12" gradientTransform="matrix(3.781975,0,0,-3.781975,0,2837.540031)">
<stop offset="0" style="stop-color:rgb(95.686275%,48.627451%,42.352941%);stop-opacity:1;"/>
<stop offset="1" style="stop-color:rgb(100%,84.705882%,21.176471%);stop-opacity:1;"/>
</linearGradient>
</defs>
<g id="surface1">
<rect x="0" y="0" width="3232" height="3232" style="fill:url(#linear0);stroke:none;"/>
<path style=" stroke:none;fill-rule:nonzero;fill:url(#linear1);" d="M 747.203125 1479.585938 C 710.671875 1533.667969 661.089844 1629.5 649.480469 1647.882812 C 613.4375 1581.585938 602.015625 1513.699219 615.667969 1461.203125 C 618.351562 1468.503906 620.167969 1476.332031 622.511719 1483.894531 C 644.863281 1549.816406 660.03125 1567.589844 660.03125 1567.589844 C 660.03125 1567.589844 681.097656 1537.976562 708.210938 1506.699219 C 716.496094 1497.132812 758.550781 1453.753906 758.625 1453.753906 C 755.714844 1460.144531 751.742188 1468.882812 747.28125 1479.433594 Z M 1069.46875 1325.429688 L 1081.152344 1310.71875 C 1100.253906 1286.929688 1131.1875 1248.46875 1162.503906 1210.042969 C 976.089844 1340.976562 806.996094 1495.921875 785.25 1722.992188 C 766.71875 1709.527344 749.511719 1694.324219 733.855469 1677.609375 C 717.59375 1660.398438 704.164062 1640.695312 694.105469 1619.253906 C 667.859375 1722.3125 704.316406 1794.546875 792.851562 1860.277344 C 812.707031 1621.636719 896.554688 1455.191406 1069.46875 1325.429688 Z M 1691.261719 557.691406 C 1599.773438 547.742188 1526.820312 541.125 1376.335938 546.078125 C 1286.097656 549.066406 1151.6875 577.203125 1151.6875 577.203125 C 1170.597656 588.324219 1203.046875 603.679688 1236.441406 619.601562 C 1466.5 571.910156 1625.078125 559.996094 1691.261719 557.878906 Z M 2015.90625 836.347656 C 2035.496094 840.128906 2059.398438 849.621094 2085.757812 863.3125 C 2084.171875 841.867188 2073.960938 790.433594 2061.441406 760.554688 C 1999.378906 612.453125 1839.589844 478.949219 1656.769531 428.382812 C 1662.179688 430.84375 1995.257812 617.976562 2015.90625 836.535156 Z M 1192.417969 937.703125 C 1341.277344 895.15625 1498.039062 871.480469 1496.792969 866.414062 C 1279.367188 848.597656 904.6875 873.976562 904.6875 873.976562 C 904.6875 873.976562 1007.175781 899.957031 1037.964844 906.878906 C 1101.652344 921.328125 1148.320312 930.515625 1192.417969 937.703125 Z M 1193.703125 1916.214844 C 1188.824219 1945.257812 1174.378906 2046.238281 1085.160156 2257.386719 C 1026.011719 2177.964844 962.359375 2094.382812 912.96875 2006.1875 L 911.191406 2003.046875 L 908.015625 1997.296875 C 873.976562 1935.5 848.371094 1873.25 835.4375 1807.820312 C 817.019531 2024.414062 942.921875 2193.582031 1092.800781 2394.671875 C 1189.054688 2196.191406 1211.894531 2065.296875 1205.996094 1813.910156 C 1205.769531 1818.902344 1197.523438 1894.125 1193.816406 1916.214844 Z M 2117.566406 2353.144531 C 2116.167969 2365.246094 2110.871094 2390.546875 2099.296875 2403.257812 C 2094.988281 2357.304688 2067.304688 2239.800781 2006.941406 2159.242188 C 1930.433594 2057.128906 1659.265625 1880.058594 1439.648438 1329.097656 C 1446.152344 1380.835938 1455.53125 1433.898438 1467.445312 1486.996094 C 1513.28125 1625.53125 1671.066406 1868.976562 1711.570312 1921.925781 C 1830.703125 2076.984375 1927.9375 2129.289062 1994.007812 2227.46875 C 2053.386719 2315.664062 2084.964844 2440.46875 2093.058594 2480.03125 C 2102.210938 2473.867188 2120.136719 2419.519531 2118.777344 2339.679688 C 2118.625 2344.179688 2118.207031 2348.683594 2117.566406 2353.144531 Z M 2300.800781 1567.210938 C 2247.855469 1538.734375 2203.644531 1533.554688 2145.476562 1537.714844 C 2210.335938 1549.398438 2534.414062 1753.285156 2452.234375 1846.398438 C 2460.78125 1844.65625 2469.78125 1842.617188 2478.707031 1839.742188 C 2549.164062 1799.917969 2460.136719 1653.140625 2300.800781 1567.210938 Z M 1494.449219 2660.542969 C 1454.246094 2536.796875 1399.480469 2440.015625 1345.285156 2331.511719 C 1323.238281 2287.375 1258.300781 2183.449219 1240.714844 2151.679688 C 1235.535156 2171.722656 1228.914062 2197.0625 1223.128906 2221.757812 C 1221.578125 2228.492188 1222.9375 2235.601562 1226.910156 2241.273438 C 1351.980469 2423.375 1409.164062 2601.015625 1502.125 2797.566406 C 1566.078125 2604.269531 1585.328125 2443.648438 1562.9375 2276.371094 C 1560.292969 2401.78125 1534.273438 2540.164062 1494.449219 2660.542969 Z M 2271.265625 1772.269531 C 2232.613281 1755.859375 2197.25 1732.597656 2166.882812 1703.550781 C 2148.765625 1686.722656 2074.1875 1600.003906 2059.777344 1585.820312 C 2001.761719 1519.863281 1942.535156 1567.96875 1918.066406 1605.296875 C 1879.488281 1663.917969 1897.453125 1744.511719 1900.175781 1762.171875 C 1897.417969 1722.199219 1903.015625 1682.183594 1926.085938 1659.226562 C 1935.386719 1650.414062 1946.429688 1643.644531 1958.457031 1639.257812 C 1979.902344 1652.648438 2137.195312 1738.839844 2200.730469 1756.5 C 2223.992188 1762.929688 2247.550781 1768.148438 2271.339844 1772.195312 Z M 2117.488281 2310.824219 Z M 1985.992188 2566.371094 C 1966.890625 2620.566406 1939.398438 2678.925781 1939.359375 2678.847656 C 1774.164062 2530.632812 1707.484375 2475.605469 1673.484375 2438.464844 C 1648.714844 2411.804688 1642.019531 2395.652344 1627.460938 2361.085938 C 1636.195312 2432.113281 1648.601562 2542.621094 1672.84375 2566.597656 C 1760.773438 2654.53125 1856.535156 2734.707031 1947.148438 2816.019531 C 1947.148438 2816.019531 1992.230469 2714.550781 1995.484375 2704.113281 C 2021.917969 2621.628906 2027.25 2533.808594 2011.027344 2448.714844 C 2007.585938 2488.804688 1999.152344 2528.324219 1985.992188 2566.371094 Z M 1985.992188 2566.371094 "/>
<path style=" stroke:none;fill-rule:nonzero;fill:url(#linear2);" d="M 2410.746094 1397.816406 C 2573.558594 1220.066406 2167.261719 866.941406 2015.945312 836.6875 C 1995.257812 618.089844 1662.101562 430.917969 1656.65625 428.875 C 1638.238281 422.105469 1618.835938 419.34375 1599.925781 416.128906 C 1654.953125 465.296875 1711.117188 539.726562 1712.667969 557.652344 C 1665.847656 557.652344 1497.09375 565.746094 1236.441406 619.941406 C 1270.554688 634.617188 1303.835938 651.144531 1336.132812 669.484375 L 904.988281 874.089844 C 904.988281 874.089844 1279.667969 848.597656 1497.09375 866.527344 C 1498.910156 874.089844 1162.691406 921.136719 1007.59375 1009.070312 C 899.617188 1070.261719 801.136719 1174.339844 722.320312 1278.6875 C 680.71875 1333.636719 633.746094 1392.636719 615.894531 1461.394531 C 618.578125 1468.691406 620.394531 1476.519531 622.738281 1484.085938 C 645.089844 1550.003906 660.257812 1567.78125 660.257812 1567.78125 C 660.257812 1567.78125 681.324219 1538.167969 708.441406 1506.890625 C 716.722656 1497.320312 758.777344 1453.941406 758.851562 1453.941406 C 744.671875 1485.03125 705.90625 1573.980469 694.296875 1619.175781 C 710.105469 1653.742188 738.621094 1688.273438 785.441406 1723.03125 C 807.226562 1496.113281 976.277344 1341.050781 1162.691406 1210.082031 C 1131.378906 1248.503906 1100.441406 1286.96875 1081.34375 1310.757812 C 935.320312 1492.519531 847.539062 1668.757812 835.742188 1807.820312 C 868.265625 1971.542969 983.617188 2120.703125 1085.351562 2257.421875 C 1130.46875 2189.953125 1206.148438 1947.300781 1206.148438 1817.84375 C 1206.148438 1720.078125 1202.175781 1668.570312 1216.019531 1500.15625 C 1221.957031 1427.582031 1242.039062 1348.046875 1248.203125 1333.335938 C 1234.511719 1414.382812 1217.492188 1564.035156 1239.882812 1781.800781 C 1263.40625 2010.914062 1254.214844 2091.394531 1240.789062 2152.019531 C 1328.117188 2307.082031 1422.890625 2469.707031 1494.523438 2660.734375 C 1534.347656 2540.351562 1560.367188 2401.96875 1562.9375 2276.710938 C 1563.316406 2244.148438 1546.714844 2127.019531 1484.726562 1988.636719 C 1374.632812 1742.808594 1335.605469 1536.652344 1363.0625 1404.132812 C 1372.707031 1827.789062 1618.796875 2032.585938 1627.347656 2361.050781 C 1662.328125 2444.253906 1658.585938 2426.96875 1939.246094 2678.734375 C 1977.292969 2590.84375 2002.746094 2548.558594 2010.726562 2448.601562 C 2010.914062 2449.585938 2011.140625 2450.605469 2011.367188 2451.589844 C 1989.695312 2331.097656 1931.226562 2218.167969 1829.832031 2130.347656 C 1656.882812 1980.542969 1479.847656 1649.46875 1439.496094 1329.097656 C 1603.632812 1829.871094 1924.078125 2061.628906 2000.589844 2163.78125 C 2061.101562 2244.335938 2095.136719 2357.304688 2099.296875 2403.257812 C 2110.871094 2390.546875 2116.167969 2365.4375 2117.566406 2353.144531 C 2136.855469 2221.871094 1940.71875 1921.242188 1918.898438 1854.226562 C 1903.355469 1806.6875 1902.902344 1776.242188 1898.210938 1749.085938 C 1893.75 1724.125 1892.765625 1698.675781 1895.300781 1673.449219 C 1899.082031 1640.582031 1910.238281 1609.757812 1933.382812 1586.460938 C 1957.171875 1562.371094 1991.511719 1545.429688 2023.089844 1559.234375 C 2041.398438 1567.25 2058.640625 1585.101562 2059.777344 1586.046875 C 2074.1875 1600.230469 2148.765625 1686.949219 2166.882812 1703.78125 C 2197.25 1732.824219 2232.613281 1756.085938 2271.265625 1772.5 C 2311.242188 1779.417969 2351.78125 1783.84375 2392.289062 1787.625 C 2350.949219 1741.222656 2227.773438 1661.382812 2188.515625 1612.9375 C 2170.816406 1590.851562 2145.476562 1537.714844 2145.476562 1537.714844 C 2203.644531 1533.554688 2278.5625 1558.097656 2316.535156 1578.445312 C 2389.867188 1617.664062 2566.484375 1778.511719 2476.363281 1840.460938 C 2489.636719 1836.792969 2502.644531 1832.214844 2515.277344 1826.769531 C 2728.277344 1736.117188 2584.714844 1551.441406 2410.746094 1397.816406 Z M 2185 1379.324219 C 1977.519531 1345.550781 2068.398438 1223.886719 2053.234375 1115 C 2103.609375 1162.804688 2165.257812 1218.136719 2198.539062 1293.207031 C 2219.488281 1345.136719 2235.675781 1350.203125 2291.988281 1361.738281 L 2196.648438 1379.171875 C 2192.789062 1379.851562 2188.855469 1379.929688 2185 1379.324219 Z M 2185 1379.324219 "/>
<path style=" stroke:none;fill-rule:nonzero;fill:url(#linear3);" d="M 2410.746094 1397.816406 C 2573.558594 1220.066406 2167.261719 866.941406 2015.945312 836.6875 C 1995.257812 618.089844 1662.101562 430.917969 1656.65625 428.875 C 1638.238281 422.105469 1618.835938 419.34375 1599.925781 416.128906 C 1654.953125 465.296875 1711.117188 539.726562 1712.667969 557.652344 C 1665.847656 557.652344 1497.09375 565.746094 1236.441406 619.941406 C 1270.554688 634.617188 1303.835938 651.144531 1336.132812 669.484375 L 904.988281 874.089844 C 904.988281 874.089844 1279.667969 848.597656 1497.09375 866.527344 C 1498.910156 874.089844 1162.691406 921.136719 1007.59375 1009.070312 C 899.617188 1070.261719 801.136719 1174.339844 722.320312 1278.6875 C 680.71875 1333.636719 633.746094 1392.636719 615.894531 1461.394531 C 618.578125 1468.691406 620.394531 1476.519531 622.738281 1484.085938 C 645.089844 1550.003906 660.257812 1567.78125 660.257812 1567.78125 C 660.257812 1567.78125 681.324219 1538.167969 708.441406 1506.890625 C 716.722656 1497.320312 758.777344 1453.941406 758.851562 1453.941406 C 744.671875 1485.03125 705.90625 1573.980469 694.296875 1619.175781 C 710.105469 1653.742188 738.621094 1688.273438 785.441406 1723.03125 C 807.226562 1496.113281 976.277344 1341.050781 1162.691406 1210.082031 C 1131.378906 1248.503906 1100.441406 1286.96875 1081.34375 1310.757812 C 935.320312 1492.519531 847.539062 1668.757812 835.742188 1807.820312 C 868.265625 1971.542969 983.617188 2120.703125 1085.351562 2257.421875 C 1130.46875 2189.953125 1206.148438 1947.300781 1206.148438 1817.84375 C 1206.148438 1720.078125 1202.175781 1668.570312 1216.019531 1500.15625 C 1221.957031 1427.582031 1242.039062 1348.046875 1248.203125 1333.335938 C 1234.511719 1414.382812 1217.492188 1564.035156 1239.882812 1781.800781 C 1263.40625 2010.914062 1254.214844 2091.394531 1240.789062 2152.019531 C 1328.117188 2307.082031 1422.890625 2469.707031 1494.523438 2660.734375 C 1534.347656 2540.351562 1560.367188 2401.96875 1562.9375 2276.710938 C 1563.316406 2244.148438 1546.714844 2127.019531 1484.726562 1988.636719 C 1374.632812 1742.808594 1335.605469 1536.652344 1363.0625 1404.132812 C 1372.707031 1827.789062 1618.796875 2032.585938 1627.347656 2361.050781 C 1662.328125 2444.253906 1658.585938 2426.96875 1939.246094 2678.734375 C 1956 2644.925781 2002.746094 2548.558594 2010.726562 2448.601562 C 2010.914062 2449.585938 2011.140625 2450.605469 2011.367188 2451.589844 C 1989.695312 2331.097656 1931.226562 2218.167969 1829.832031 2130.347656 C 1656.882812 1980.542969 1479.847656 1649.46875 1439.496094 1329.097656 C 1603.632812 1829.871094 1924.078125 2061.628906 2000.589844 2163.78125 C 2061.101562 2244.335938 2095.136719 2357.304688 2099.296875 2403.257812 C 2110.871094 2390.546875 2116.167969 2365.4375 2117.566406 2353.144531 C 2136.855469 2221.871094 1940.71875 1921.242188 1918.898438 1854.226562 C 1903.355469 1806.6875 1902.902344 1776.242188 1898.210938 1749.085938 C 1893.75 1724.125 1892.765625 1698.675781 1895.300781 1673.449219 C 1899.082031 1640.582031 1910.238281 1609.757812 1933.382812 1586.460938 C 1957.171875 1562.371094 1991.511719 1545.429688 2023.089844 1559.234375 C 2041.398438 1567.25 2058.640625 1585.101562 2059.777344 1586.046875 C 2074.1875 1600.230469 2148.765625 1686.949219 2166.882812 1703.78125 C 2197.25 1732.824219 2232.613281 1756.085938 2271.265625 1772.5 C 2311.242188 1779.417969 2351.78125 1783.84375 2392.289062 1787.625 C 2350.949219 1741.222656 2227.773438 1661.382812 2188.515625 1612.9375 C 2170.816406 1590.851562 2145.476562 1537.714844 2145.476562 1537.714844 C 2203.644531 1533.554688 2278.5625 1558.097656 2316.535156 1578.445312 C 2389.867188 1617.664062 2566.484375 1778.511719 2476.363281 1840.460938 C 2489.636719 1836.792969 2502.644531 1832.214844 2515.277344 1826.769531 C 2728.277344 1736.117188 2584.714844 1551.441406 2410.746094 1397.816406 Z M 2185 1379.324219 C 1977.519531 1345.550781 2068.398438 1223.886719 2053.234375 1115 C 2103.609375 1162.804688 2165.257812 1218.136719 2198.539062 1293.207031 C 2219.488281 1345.136719 2235.675781 1350.203125 2291.988281 1361.738281 L 2196.648438 1379.171875 C 2192.789062 1379.851562 2188.855469 1379.929688 2185 1379.324219 Z M 2185 1379.324219 "/>
</g>
</svg>
